<svg width="16" height="16" viewBox="0 0 16 16" fill="none" xmlns="http://www.w3.org/2000/svg">
<path fill-rule="evenodd" clip-rule="evenodd" d="M13.6364 3.82548C12.7269 2.60192 11.4131 1.6649 9.82464 1.24007C8.23621 0.815244 6.62878 0.970712 5.22864 1.57631L13.6364 3.82548ZM2.23042 4.0385C2.85203 3.13431 3.6731 2.39885 4.61427 1.87821L10.8081 3.53534C10.4016 3.76944 9.96616 4.17288 9.6291 4.61638L14.7218 5.97884C14.8663 6.45579 14.9605 6.95021 15 7.45488L2.23042 4.0385ZM14.7806 9.81131C14.7088 10.0795 14.6222 10.3398 14.522 10.5914L1.0738 6.9936C1.11303 6.72545 1.16855 6.45699 1.24037 6.18884C1.40935 5.55883 1.6592 4.97221 1.97604 4.43711L8.55698 6.19788C8.29355 6.5739 8.05365 6.98245 7.84242 7.41963L14.8962 9.30694C14.8639 9.47537 14.8253 9.64349 14.7803 9.81191L14.7806 9.81131ZM1.40694 10.347C1.08074 9.43499 0.941636 8.44855 1.02251 7.44614L7.22896 9.10658C7.1843 9.24759 7.14236 9.3904 7.10343 9.53532C7.02437 9.83029 6.9598 10.1247 6.90971 10.4169L13.6116 12.2099C13.2996 12.6236 12.9442 12.9984 12.554 13.3292L1.40694 10.347ZM6.19636 14.7598C4.08077 14.1936 2.45191 12.7197 1.61786 10.8701L6.6683 12.2214C6.66016 12.6917 6.68943 13.15 6.7537 13.5896L10.4233 14.5712C9.11341 15.052 7.64719 15.1478 6.19636 14.7598Z" fill="#040000"/>
</svg>
